<?xml version="1.0" encoding="UTF-8" standalone="no"?>
<!-- Created with Inkscape (http://www.inkscape.org/) -->

<svg
   xmlns:dc="http://purl.org/dc/elements/1.1/"
   xmlns:cc="http://creativecommons.org/ns#"
   xmlns:rdf="http://www.w3.org/1999/02/22-rdf-syntax-ns#"
   xmlns:svg="http://www.w3.org/2000/svg"
   xmlns="http://www.w3.org/2000/svg"
   xmlns:sodipodi="http://sodipodi.sourceforge.net/DTD/sodipodi-0.dtd"
   xmlns:inkscape="http://www.inkscape.org/namespaces/inkscape"
   version="1.1"
   width="16"
   height="16"
   id="svg2994"
   inkscape:version="0.48.3.1 r9886"
   sodipodi:docname="aunisync-active-symbolic.svg">
  <sodipodi:namedview
     pagecolor="#ffffff"
     bordercolor="#666666"
     borderopacity="1"
     objecttolerance="10"
     gridtolerance="10"
     guidetolerance="10"
     inkscape:pageopacity="0"
     inkscape:pageshadow="2"
     inkscape:window-width="1280"
     inkscape:window-height="975"
     id="namedview46"
     showgrid="true"
     inkscape:zoom="10.429825"
     inkscape:cx="-12.831041"
     inkscape:cy="2.4237435"
     inkscape:window-x="1280"
     inkscape:window-y="0"
     inkscape:window-maximized="1"
     inkscape:current-layer="svg2994">
    <inkscape:grid
       type="xygrid"
       id="grid3062" />
  </sodipodi:namedview>
  <title
     id="title2988">aUniSync symbolic icon</title>
  <defs
     id="defs2996" />
  <metadata
     id="metadata2999">
    <rdf:RDF>
      <cc:Work
         rdf:about="">
        <dc:format>image/svg+xml</dc:format>
        <dc:type
           rdf:resource="http://purl.org/dc/dcmitype/StillImage" />
        <dc:title>aUniSync symbolic icon</dc:title>
        <cc:license
           rdf:resource="http://creativecommons.org/licenses/by-sa/3.0/" />
        <dc:creator>
          <cc:Agent>
            <dc:title>Andrew Chadwick</dc:title>
          </cc:Agent>
        </dc:creator>
        <dc:contributor>
          <cc:Agent>
            <dc:title>GNOME Project</dc:title>
          </cc:Agent>
        </dc:contributor>
        <dc:description>Symbolic icon theme for aUniSync; elements taken from gnome-icon-theme-symbolic. Please link to http://www.gnome.org and attribute to &quot;GNOME Project&quot;. No need to attribute me.</dc:description>
        <dc:date>2013-05-22</dc:date>
      </cc:Work>
      <cc:License
         rdf:about="http://creativecommons.org/licenses/by-sa/3.0/">
        <cc:permits
           rdf:resource="http://creativecommons.org/ns#Reproduction" />
        <cc:permits
           rdf:resource="http://creativecommons.org/ns#Distribution" />
        <cc:requires
           rdf:resource="http://creativecommons.org/ns#Notice" />
        <cc:requires
           rdf:resource="http://creativecommons.org/ns#Attribution" />
        <cc:permits
           rdf:resource="http://creativecommons.org/ns#DerivativeWorks" />
        <cc:requires
           rdf:resource="http://creativecommons.org/ns#ShareAlike" />
      </cc:License>
    </rdf:RDF>
  </metadata>
  <path
     inkscape:connector-curvature="0"
     style="color:#000000;fill:#bebebe;fill-opacity:1;fill-rule:nonzero;stroke:none;stroke-width:0.9999997;marker:none;visibility:visible;display:block;overflow:visible;enable-background:new"
     id="path3421-1"
     d="m 12,12 -4,0 0,4 z m 0,4 c 1.863188,0 3.399078,-1.275691 3.84375,-3 l -2.125,0 C 13.372707,13.596896 12.739604,14 12,14 10.895431,14 10,13.104569 10,12 l -2,0 c 0,2.209139 1.790861,4 4,4 z m 0,-4 4,0 0,-4 z M 12,8 C 10.136812,8 8.600922,9.275691 8.15625,11 l 2.125,0 C 10.627293,10.403104 11.260396,10 12,10 c 1.104569,0 2,0.895431 2,2 l 2,0 C 16,9.790861 14.209139,8 12,8 z" />
  <path
     style="font-size:42.26685333000000355px;font-style:normal;font-variant:normal;font-weight:bold;font-stretch:normal;writing-mode:lr-tb;text-anchor:start;color:#000000;fill:#bebebe;fill-opacity:1;fill-rule:nonzero;stroke:none;stroke-width:0.99999970000000005;marker:none;visibility:visible;display:block;overflow:visible;enable-background:new;font-family:Arial;opacity:1"
     d="M 4 1.5 L 1.5 4 L 3 4 L 3 10 C 3 11.882618 4.341812 13.75425 7 13.96875 L 7 12.46875 C 5.421238 12.236341 5 10.909324 5 10 L 5 4 L 6.5 4 L 4 1.5 z M 11 1.5 L 8.5 4 L 10 4 L 10 7.4375 C 10.611636 7.1657289 11.287384 7 12 7 L 12 4 L 13.5 4 L 11 1.5 z "
     id="text1291-7" />
</svg>
