<?xml version="1.0" encoding="UTF-8" standalone="no"?>
<!-- Created with Inkscape (http://www.inkscape.org/) -->

<svg
   xmlns:dc="http://purl.org/dc/elements/1.1/"
   xmlns:cc="http://creativecommons.org/ns#"
   xmlns:rdf="http://www.w3.org/1999/02/22-rdf-syntax-ns#"
   xmlns:svg="http://www.w3.org/2000/svg"
   xmlns="http://www.w3.org/2000/svg"
   xmlns:sodipodi="http://sodipodi.sourceforge.net/DTD/sodipodi-0.dtd"
   xmlns:inkscape="http://www.inkscape.org/namespaces/inkscape"
   version="1.1"
   width="16"
   height="16"
   id="svg2994"
   inkscape:version="0.48.3.1 r9886"
   sodipodi:docname="aunisync-properties-symbolic.svg">
  <sodipodi:namedview
     pagecolor="#ffffff"
     bordercolor="#666666"
     borderopacity="1"
     objecttolerance="10"
     gridtolerance="10"
     guidetolerance="10"
     inkscape:pageopacity="0"
     inkscape:pageshadow="2"
     inkscape:window-width="1280"
     inkscape:window-height="975"
     id="namedview46"
     showgrid="true"
     inkscape:zoom="83.4386"
     inkscape:cx="2.5870768"
     inkscape:cy="4.1346817"
     inkscape:window-x="1280"
     inkscape:window-y="0"
     inkscape:window-maximized="1"
     inkscape:current-layer="svg2994">
    <inkscape:grid
       type="xygrid"
       id="grid3062" />
  </sodipodi:namedview>
  <title
     id="title2988">aUniSync symbolic icon</title>
  <defs
     id="defs2996" />
  <metadata
     id="metadata2999">
    <rdf:RDF>
      <cc:Work
         rdf:about="">
        <dc:format>image/svg+xml</dc:format>
        <dc:type
           rdf:resource="http://purl.org/dc/dcmitype/StillImage" />
        <dc:title>aUniSync symbolic icon</dc:title>
        <cc:license
           rdf:resource="http://creativecommons.org/licenses/by-sa/3.0/" />
        <dc:creator>
          <cc:Agent>
            <dc:title>Andrew Chadwick</dc:title>
          </cc:Agent>
        </dc:creator>
        <dc:contributor>
          <cc:Agent>
            <dc:title>GNOME Project</dc:title>
          </cc:Agent>
        </dc:contributor>
        <dc:description>Symbolic icon theme for aUniSync; elements taken from gnome-icon-theme-symbolic. Please link to http://www.gnome.org and attribute to &quot;GNOME Project&quot;. No need to attribute me.</dc:description>
        <dc:date>2013-05-22</dc:date>
      </cc:Work>
      <cc:License
         rdf:about="http://creativecommons.org/licenses/by-sa/3.0/">
        <cc:permits
           rdf:resource="http://creativecommons.org/ns#Reproduction" />
        <cc:permits
           rdf:resource="http://creativecommons.org/ns#Distribution" />
        <cc:requires
           rdf:resource="http://creativecommons.org/ns#Notice" />
        <cc:requires
           rdf:resource="http://creativecommons.org/ns#Attribution" />
        <cc:permits
           rdf:resource="http://creativecommons.org/ns#DerivativeWorks" />
        <cc:requires
           rdf:resource="http://creativecommons.org/ns#ShareAlike" />
      </cc:License>
    </rdf:RDF>
  </metadata>
  <path
     style="font-size:42.26685333000000355px;font-style:normal;font-variant:normal;font-weight:bold;font-stretch:normal;writing-mode:lr-tb;text-anchor:start;color:#bebebe;fill:#bebebe;fill-opacity:1;fill-rule:nonzero;stroke:none;stroke-width:1;marker:none;visibility:visible;display:inline;overflow:visible;enable-background:new;font-family:Arial;opacity:1"
     d="M 4 1.5 L 1.5 4 L 3 4 L 3 10 C 3 12 4.5 14 7.5 14 C 7.5109442 14 7.5203457 14.000053 7.53125 14 C 7.4999692 13.936606 7.4650055 13.881094 7.4375 13.8125 C 7.2992352 13.456204 7.3884857 13.022702 7.65625 12.75 C 7.7674281 12.63652 7.8678015 12.561038 7.96875 12.46875 C 7.8197489 12.489216 7.670082 12.5 7.5 12.5 C 5.5 12.5 5 11 5 10 L 5 4 L 6.5 4 L 4 1.5 z M 11 1.5 L 8.5 4 L 10 4 L 10 7.75 C 10.012872 7.7440873 10.018095 7.724069 10.03125 7.71875 C 10.179526 7.657447 10.396453 7.62303 10.59375 7.5625 C 10.63469 7.549412 10.67647 7.53897 10.71875 7.53125 C 10.768955 7.506079 10.82128 7.485147 10.875 7.46875 C 11.295362 7.384106 11.353504 7.381372 11.03125 7.4375 C 11.402315 7.3827068 11.789761 7.5652117 12 7.875 L 12 4 L 13.5 4 L 11 1.5 z "
     id="text1291-7" />
  <path
     inkscape:connector-curvature="0"
     style="color:#000000;fill:#bebebe;fill-opacity:1;fill-rule:nonzero;stroke:none;stroke-width:1;marker:none;visibility:visible;display:inline;overflow:visible;enable-background:accumulate"
     id="path42972"
     d="m 11.0625,8.4375 c -0.230139,0.0471 -0.443908,0.13096 -0.65625,0.21875 -0.01671,0.62433 0.08693,1.44177 -0.15625,1.65625 -0.238965,0.21077 -1.038358,0.0343 -1.65625,-0.0313 -0.131388,0.23649 -0.235259,0.48523 -0.3125,0.75 0.478093,0.39586 1.140508,0.83901 1.15625,1.15625 0.01594,0.32119 -0.626418,0.80489 -1.0625,1.25 0.103387,0.25783 0.250144,0.49354 0.40625,0.71875 0.608323,-0.12641 1.366392,-0.37354 1.625,-0.1875 0.263308,0.18942 0.265212,1.00535 0.34375,1.625 0.249548,0.075 0.512509,0.1045 0.78125,0.125 0.281352,-0.55462 0.567413,-1.3198 0.875,-1.40625 0.315752,-0.0887 0.963545,0.45813 1.5,0.78125 0.21871,-0.1516 0.412931,-0.33706 0.59375,-0.53125 -0.253838,-0.57232 -0.721084,-1.29192 -0.59375,-1.59375 0.127453,-0.30211 0.975404,-0.46963 1.5625,-0.6875 0.0044,-0.0735 0.03125,-0.14414 0.03125,-0.21875 0,-0.19137 -0.0344,-0.37899 -0.0625,-0.5625 -0.606097,-0.16082 -1.467207,-0.2413 -1.625,-0.53125 C 13.655764,10.68069 14.054286,9.9073 14.25,9.31245 14.048839,9.13387 13.830591,8.97529 13.59375,8.8437 13.092857,9.21883 12.509421,9.83806 12.1875,9.7812 c -0.316887,-0.056 -0.662888,-0.81955 -1,-1.34375 -0.04019,0.007 -0.08527,-0.008 -0.125,0 z m 0.625,1.875 c 0.931981,0 1.6875,0.75552 1.6875,1.6875 0,0.93198 -0.755519,1.6875 -1.6875,1.6875 C 10.755519,13.6875 10,12.93198 10,12 c 0,-0.93198 0.755519,-1.6875 1.6875,-1.6875 z" />
</svg>
